<mxfile host="app.diagrams.net" agent="Mozilla/5.0 (Windows NT 10.0; Win64; x64) AppleWebKit/537.36 (KHTML, like Gecko) Chrome/140.0.0.0 Safari/537.36" version="28.2.5">
  <diagram name="Page-1" id="vvveMXzXcXlvGEUFj_2V">
    <mxGraphModel dx="1042" dy="527" grid="1" gridSize="10" guides="1" tooltips="1" connect="1" arrows="1" fold="1" page="1" pageScale="1" pageWidth="850" pageHeight="1100" math="0" shadow="0">
      <root>
        <mxCell id="0" />
        <mxCell id="1" parent="0" />
        <mxCell id="ipE3xKJ-I7LGU50CusR4-1" value="" style="rounded=0;whiteSpace=wrap;html=1;fillColor=light-dark(#FFE6CC,#FFFFFF);strokeColor=#d79b00;" vertex="1" parent="1">
          <mxGeometry x="65" y="30" width="720" height="520" as="geometry" />
        </mxCell>
        <mxCell id="ipE3xKJ-I7LGU50CusR4-5" value="" style="rounded=0;whiteSpace=wrap;html=1;" vertex="1" parent="1">
          <mxGeometry x="320" y="170" width="170" height="60" as="geometry" />
        </mxCell>
        <mxCell id="ipE3xKJ-I7LGU50CusR4-6" value="&lt;font style=&quot;color: light-dark(rgb(0, 0, 0), rgb(0, 0, 0));&quot;&gt;Sign up&lt;/font&gt;" style="text;html=1;align=center;verticalAlign=middle;whiteSpace=wrap;rounded=0;" vertex="1" parent="1">
          <mxGeometry x="390" y="70" width="60" height="30" as="geometry" />
        </mxCell>
        <mxCell id="ipE3xKJ-I7LGU50CusR4-7" value="GOOGLE" style="text;html=1;align=center;verticalAlign=middle;whiteSpace=wrap;rounded=0;" vertex="1" parent="1">
          <mxGeometry x="330" y="185" width="120" height="30" as="geometry" />
        </mxCell>
        <mxCell id="ipE3xKJ-I7LGU50CusR4-8" value="" style="rounded=0;whiteSpace=wrap;html=1;" vertex="1" parent="1">
          <mxGeometry x="440" y="190" width="20" height="20" as="geometry" />
        </mxCell>
        <mxCell id="ipE3xKJ-I7LGU50CusR4-10" value="&lt;font style=&quot;color: light-dark(rgb(0, 0, 0), rgb(0, 0, 0));&quot;&gt;Already have an accout? Sign in&lt;/font&gt;&lt;font style=&quot;color: light-dark(rgb(0, 0, 0), rgb(51, 51, 255));&quot;&gt; here&lt;/font&gt;" style="text;html=1;align=center;verticalAlign=middle;whiteSpace=wrap;rounded=0;" vertex="1" parent="1">
          <mxGeometry x="290" y="290" width="260" height="30" as="geometry" />
        </mxCell>
      </root>
    </mxGraphModel>
  </diagram>
</mxfile>
